<svg width="200" height="80" viewBox="0 0 200 80" fill="none" xmlns="http://www.w3.org/2000/svg">
<path d="M74.8057 58L74.7577 35.728L63.7177 54.16H60.9337L49.8937 36.016V58H43.9417V24.4H49.0777L62.4217 46.672L75.5257 24.4H80.6617L80.7097 58H74.8057ZM105.481 58.48C102.057 58.48 98.9694 57.744 96.2174 56.272C93.4654 54.768 91.3054 52.704 89.7374 50.08C88.1694 47.424 87.3854 44.464 87.3854 41.2C87.3854 37.936 88.1694 34.992 89.7374 32.368C91.3054 29.712 93.4654 27.648 96.2174 26.176C98.9694 24.672 102.057 23.92 105.481 23.92C108.905 23.92 111.993 24.672 114.745 26.176C117.497 27.648 119.657 29.696 121.225 32.32C122.793 34.944 123.577 37.904 123.577 41.2C123.577 44.496 122.793 47.456 121.225 50.08C119.657 52.704 117.497 54.768 114.745 56.272C111.993 57.744 108.905 58.48 105.481 58.48ZM105.481 53.008C107.721 53.008 109.737 52.512 111.529 51.52C113.321 50.496 114.729 49.088 115.753 47.296C116.777 45.472 117.289 43.44 117.289 41.2C117.289 38.96 116.777 36.944 115.753 35.152C114.729 33.328 113.321 31.92 111.529 30.928C109.737 29.904 107.721 29.392 105.481 29.392C103.241 29.392 101.225 29.904 99.4334 30.928C97.6414 31.92 96.2334 33.328 95.2094 35.152C94.1854 36.944 93.6734 38.96 93.6734 41.2C93.6734 43.44 94.1854 45.472 95.2094 47.296C96.2334 49.088 97.6414 50.496 99.4334 51.52C101.225 52.512 103.241 53.008 105.481 53.008ZM159.834 24.4L145.194 58H139.05L124.362 24.4H131.13L142.314 50.32L153.594 24.4H159.834Z" fill="white"/>
<path d="M39.4297 62.8H159.594V65.2H39.4297V62.8Z" fill="white"/>
<circle cx="105.5" cy="40.5" r="8.5" fill="#9AA9B8" stroke="#14153D" stroke-width="2"/>
<circle cx="105.5" cy="40.5" r="18.5" fill="#9AA9B8"/>
<circle cx="105.5" cy="40.5" r="2.5" fill="#14153D"/>
<circle cx="115.5" cy="40.5" r="5.5" fill="#14153D"/>
<circle cx="105.5" cy="50.5" r="5.5" fill="#14153D"/>
<circle cx="105.5" cy="30.5" r="5.5" fill="#14153D"/>
<circle cx="95.5" cy="40.5" r="5.5" fill="#14153D"/>
<line x1="36" y1="16" x2="36" y2="64" stroke="white" stroke-width="2"/>
<line x1="35" y1="15" x2="156" y2="15" stroke="white" stroke-width="2"/>
<line x1="165" y1="24" x2="165" y2="64" stroke="white" stroke-width="2"/>
<circle cx="164" cy="16" r="6" fill="#FF2667"/>
</svg>
